<svg width="1584" height="396" viewBox="0 0 1584 396" fill="none" xmlns="http://www.w3.org/2000/svg">
  <rect width="1584" height="396" fill="#020617"/>
  <circle cx="247" cy="63" r="174" fill="#2563EB" fill-opacity="0.24"/>
  <circle cx="1374" cy="87" r="186" fill="#06B6D4" fill-opacity="0.16"/>
  <circle cx="929" cy="379" r="222" fill="#7C3AED" fill-opacity="0.14"/>
  <g opacity="0.28">
    <path d="M0 327H1584" stroke="#2563EB"/>
    <path d="M0 279H1584" stroke="#2563EB"/>
    <path d="M0 231H1584" stroke="#2563EB"/>
    <path d="M0 183H1584" stroke="#2563EB"/>
    <path d="M0 135H1584" stroke="#2563EB"/>
    <path d="M0 87H1584" stroke="#2563EB"/>
    <path d="M0 39H1584" stroke="#2563EB"/>
    <path d="M175 0V396" stroke="#2563EB"/>
    <path d="M319 0V396" stroke="#2563EB"/>
    <path d="M463 0V396" stroke="#2563EB"/>
    <path d="M607 0V396" stroke="#2563EB"/>
    <path d="M751 0V396" stroke="#2563EB"/>
    <path d="M895 0V396" stroke="#2563EB"/>
    <path d="M1039 0V396" stroke="#2563EB"/>
    <path d="M1183 0V396" stroke="#2563EB"/>
    <path d="M1327 0V396" stroke="#2563EB"/>
    <path d="M1471 0V396" stroke="#2563EB"/>
  </g>
  <rect x="85" y="96" width="118" height="118" rx="28" fill="url(#a)"/>
  <path d="M117 124H152C166.912 124 179 136.088 179 151C179 165.912 166.912 178 152 178H117M140 124V178" stroke="white" stroke-width="10" stroke-linecap="round" stroke-linejoin="round"/>
  <text x="236" y="156" fill="white" font-family="Arial, Helvetica, sans-serif" font-size="54" font-weight="700" letter-spacing="6">BYTECODE CONSULTING</text>
  <text x="236" y="212" fill="#CBD5E1" font-family="Arial, Helvetica, sans-serif" font-size="26" letter-spacing="4">AI • CLOUD • SOFTWARE ENGINEERING • TRAINING</text>
  <text x="236" y="258" fill="#94A3B8" font-family="Arial, Helvetica, sans-serif" font-size="22">Founder-led consultancy for modern digital delivery and practical enablement</text>
  <defs>
    <linearGradient id="a" x1="94" y1="106" x2="194" y2="209" gradientUnits="userSpaceOnUse">
      <stop stop-color="#2563EB"/>
      <stop offset="0.5" stop-color="#06B6D4"/>
      <stop offset="1" stop-color="#7C3AED"/>
    </linearGradient>
  </defs>
</svg>
