<svg width="1600" height="900" viewBox="0 0 1600 900" fill="none" xmlns="http://www.w3.org/2000/svg">
  <rect width="1600" height="900" rx="40" fill="#07111F"/>
  <circle cx="1260" cy="170" r="220" fill="#22D3EE" fill-opacity="0.16"/>
  <circle cx="280" cy="760" r="260" fill="#6EE7B7" fill-opacity="0.12"/>
  <circle cx="760" cy="420" r="320" fill="#2563EB" fill-opacity="0.16"/>
  <rect x="120" y="120" width="640" height="520" rx="36" fill="#0F172A" stroke="#1E293B" stroke-width="2"/>
  <rect x="180" y="190" width="220" height="22" rx="11" fill="#22D3EE" fill-opacity="0.6"/>
  <rect x="180" y="244" width="430" height="18" rx="9" fill="#E2E8F0" fill-opacity="0.12"/>
  <rect x="180" y="284" width="360" height="18" rx="9" fill="#E2E8F0" fill-opacity="0.12"/>
  <rect x="180" y="324" width="400" height="18" rx="9" fill="#E2E8F0" fill-opacity="0.12"/>
  <rect x="180" y="400" width="240" height="140" rx="28" fill="#0B1323" stroke="#1E293B" stroke-width="2"/>
  <path d="M260 470C260 441.281 283.281 418 312 418H334C362.719 418 386 441.281 386 470V472C386 500.719 362.719 524 334 524H312C283.281 524 260 500.719 260 472V470Z" fill="#22D3EE" fill-opacity="0.24"/>
  <path d="M290 462H356" stroke="#67E8F9" stroke-width="16" stroke-linecap="round"/>
  <path d="M290 488H332" stroke="#67E8F9" stroke-width="16" stroke-linecap="round"/>
  <rect x="460" y="400" width="220" height="140" rx="28" fill="#0B1323" stroke="#1E293B" stroke-width="2"/>
  <path d="M512 494L548 458L580 482L630 434" stroke="#A78BFA" stroke-width="14" stroke-linecap="round" stroke-linejoin="round"/>
  <circle cx="512" cy="494" r="10" fill="#A78BFA"/>
  <circle cx="548" cy="458" r="10" fill="#A78BFA"/>
  <circle cx="580" cy="482" r="10" fill="#A78BFA"/>
  <circle cx="630" cy="434" r="10" fill="#A78BFA"/>
  <rect x="860" y="170" width="620" height="560" rx="36" fill="#0F172A" stroke="#1E293B" stroke-width="2"/>
  <rect x="930" y="250" width="280" height="28" rx="14" fill="#F8FAFC" fill-opacity="0.9"/>
  <rect x="930" y="304" width="400" height="20" rx="10" fill="#E2E8F0" fill-opacity="0.14"/>
  <rect x="930" y="346" width="470" height="20" rx="10" fill="#E2E8F0" fill-opacity="0.14"/>
  <rect x="930" y="388" width="350" height="20" rx="10" fill="#E2E8F0" fill-opacity="0.14"/>
  <rect x="930" y="470" width="470" height="160" rx="32" fill="#08101E" stroke="#1E293B" stroke-width="2"/>
  <path d="M1000 550C1000 504.712 1036.71 468 1082 468H1248C1293.29 468 1330 504.712 1330 550C1330 595.288 1293.29 632 1248 632H1082C1036.71 632 1000 595.288 1000 550Z" fill="#22D3EE" fill-opacity="0.12"/>
  <path d="M1070 522H1260" stroke="#67E8F9" stroke-width="18" stroke-linecap="round"/>
  <path d="M1070 560H1200" stroke="#67E8F9" stroke-width="18" stroke-linecap="round"/>
  <path d="M1070 598H1148" stroke="#67E8F9" stroke-width="18" stroke-linecap="round"/>
  <text x="120" y="760" fill="#F8FAFC" font-family="Arial, sans-serif" font-size="56" font-weight="700">AI Agents For Growing Businesses</text>
  <text x="120" y="815" fill="#94A3B8" font-family="Arial, sans-serif" font-size="28">Practical adoption • Faster operations • Stronger team capability</text>
</svg>
