<svg width="1600" height="900" viewBox="0 0 1600 900" fill="none" xmlns="http://www.w3.org/2000/svg">
  <rect width="1600" height="900" rx="40" fill="#06121F"/>
  <circle cx="1320" cy="150" r="250" fill="#8B5CF6" fill-opacity="0.14"/>
  <circle cx="320" cy="720" r="220" fill="#22D3EE" fill-opacity="0.12"/>
  <circle cx="920" cy="520" r="280" fill="#10B981" fill-opacity="0.12"/>
  <rect x="120" y="150" width="520" height="500" rx="40" fill="#0F172A" stroke="#1E293B" stroke-width="2"/>
  <rect x="190" y="220" width="250" height="26" rx="13" fill="#F8FAFC" fill-opacity="0.9"/>
  <rect x="190" y="274" width="360" height="18" rx="9" fill="#E2E8F0" fill-opacity="0.12"/>
  <rect x="190" y="312" width="300" height="18" rx="9" fill="#E2E8F0" fill-opacity="0.12"/>
  <rect x="190" y="350" width="390" height="18" rx="9" fill="#E2E8F0" fill-opacity="0.12"/>
  <rect x="190" y="430" width="170" height="130" rx="26" fill="#08101E" stroke="#1E293B" stroke-width="2"/>
  <path d="M250 460H300C329.823 460 354 484.177 354 514C354 543.823 329.823 568 300 568H250C220.177 568 196 543.823 196 514C196 484.177 220.177 460 250 460Z" fill="#10B981" fill-opacity="0.2"/>
  <path d="M228 514H322" stroke="#6EE7B7" stroke-width="16" stroke-linecap="round"/>
  <rect x="388" y="430" width="170" height="130" rx="26" fill="#08101E" stroke="#1E293B" stroke-width="2"/>
  <path d="M444 488L474 458L504 488L534 452" stroke="#22D3EE" stroke-width="14" stroke-linecap="round" stroke-linejoin="round"/>
  <circle cx="444" cy="488" r="9" fill="#22D3EE"/>
  <circle cx="474" cy="458" r="9" fill="#22D3EE"/>
  <circle cx="504" cy="488" r="9" fill="#22D3EE"/>
  <circle cx="534" cy="452" r="9" fill="#22D3EE"/>
  <rect x="760" y="140" width="700" height="540" rx="40" fill="#0F172A" stroke="#1E293B" stroke-width="2"/>
  <path d="M1012 260C1012 210.294 1052.29 170 1102 170H1122C1171.71 170 1212 210.294 1212 260V280H1240C1289.71 280 1330 320.294 1330 370C1330 419.706 1289.71 460 1240 460H950C887.487 460 836 408.513 836 346C836 283.487 887.487 232 950 232C973.519 232 995.357 239.367 1012 251.898V260Z" fill="#E2E8F0" fill-opacity="0.08" stroke="#CBD5E1" stroke-width="3"/>
  <path d="M1070 362L1112 320L1150 348L1210 290" stroke="#F8FAFC" stroke-width="16" stroke-linecap="round" stroke-linejoin="round"/>
  <rect x="890" y="520" width="440" height="90" rx="26" fill="#08101E" stroke="#1E293B" stroke-width="2"/>
  <rect x="940" y="552" width="260" height="18" rx="9" fill="#E2E8F0" fill-opacity="0.14"/>
  <rect x="940" y="584" width="180" height="18" rx="9" fill="#E2E8F0" fill-opacity="0.14"/>
  <text x="120" y="770" fill="#F8FAFC" font-family="Arial, sans-serif" font-size="56" font-weight="700">Serverless Modernisation</text>
  <text x="120" y="825" fill="#94A3B8" font-family="Arial, sans-serif" font-size="28">Cloud-native delivery • Resilience • Cost-aware architecture</text>
</svg>
